<?xml version="1.0" standalone="no"?>
<!DOCTYPE svg PUBLIC "-//W3C//DTD SVG 20010904//EN"
 "http://www.w3.org/TR/2001/REC-SVG-20010904/DTD/svg10.dtd">
<svg version="1.0" xmlns="http://www.w3.org/2000/svg"
 width="342.000000pt" height="342.000000pt" viewBox="0 0 342.000000 342.000000"
 preserveAspectRatio="xMidYMid meet">
<metadata>
Created by potrace 1.11, written by Peter Selinger 2001-2013
</metadata>
<g transform="translate(0.000000,342.000000) scale(0.100000,-0.100000)"
fill="#000000" stroke="none">
<path d="M1879 3362 c-89 -57 -125 -133 -183 -383 -38 -161 -76 -259 -117
-296 -20 -18 -41 -22 -134 -28 -60 -4 -121 -8 -135 -10 -14 -2 -54 -6 -90 -10
-80 -7 -107 -12 -193 -32 -76 -17 -76 -19 -34 -95 47 -86 146 -100 387 -54 74
14 155 27 180 28 l44 3 -4 -50 c-8 -80 -6 -442 3 -532 29 -316 138 -730 292
-1107 7 -17 -30 21 -179 185 -28 30 -71 77 -96 105 -39 41 -107 121 -192 222
-65 79 -229 313 -264 377 -5 11 -29 55 -52 97 -137 250 -240 588 -267 878 -10
103 -10 103 -35 105 -12 1 -67 17 -121 36 l-98 34 -38 -20 c-51 -27 -229 -206
-277 -280 -21 -33 -47 -72 -57 -86 -69 -102 -162 -348 -194 -514 -21 -104 -28
-353 -14 -435 5 -30 12 -68 14 -85 8 -55 52 -189 86 -260 53 -113 85 -156 145
-196 33 -22 84 -71 124 -121 109 -136 234 -234 328 -256 47 -11 205 -5 245 10
l39 14 -79 64 c-90 75 -82 69 -190 152 -203 159 -313 279 -382 417 -70 140
-100 251 -104 391 -7 188 40 352 182 645 60 122 88 169 120 198 22 20 45 37
51 37 5 0 14 -19 20 -42 81 -323 224 -676 360 -888 49 -75 55 -91 56 -140 1
-81 31 -130 159 -265 31 -33 68 -75 82 -92 28 -37 43 -35 43 5 0 19 17 -6 56
-87 81 -165 152 -231 287 -262 l57 -14 0 -42 c0 -71 26 -110 95 -143 78 -37
138 -96 255 -250 154 -203 223 -259 316 -260 35 0 99 15 113 26 12 10 10 83
-4 124 -14 43 -35 72 -162 227 -23 29 -47 72 -53 95 -39 151 -50 170 -154 253
-64 50 -94 123 -121 285 -15 95 -31 151 -61 217 -17 39 -35 91 -39 115 -6 41
-42 148 -71 213 -20 44 -41 133 -39 166 1 15 -4 30 -11 33 -18 7 -24 60 -29
261 -6 221 -14 369 -21 413 -5 23 -2 32 7 32 8 0 39 4 69 7 75 10 376 10 479
0 434 -40 817 -180 954 -349 98 -122 86 -264 -31 -369 -46 -42 -186 -119 -215
-119 -7 0 -17 -4 -22 -9 -6 -5 -73 -30 -150 -56 -77 -27 -142 -50 -143 -51 -2
-1 -1 -11 2 -21 5 -16 15 -19 63 -17 91 3 198 16 253 31 14 3 31 7 37 9 58 12
197 83 239 122 34 32 90 105 107 138 57 111 51 283 -15 456 -20 51 -30 61 -98
107 -64 43 -114 69 -255 131 -148 65 -183 85 -217 121 -33 35 -43 40 -68 34
-53 -12 -88 -8 -116 12 -39 27 -74 32 -255 38 -156 5 -487 16 -546 19 -17 0
-34 4 -37 7 -3 3 1 28 9 55 8 27 28 119 45 204 33 169 60 266 96 348 13 28 20
52 15 52 -4 0 -27 -13 -52 -28z"/>
</g>
</svg>
