<svg xmlns="http://www.w3.org/2000/svg" viewBox="0 0 131.05 131.05">
    <defs>
        <style>.cls-1{fill:none;stroke:#231f20;stroke-linecap:round;stroke-miterlimit:10;}</style>
    </defs>
    <title>Asset 1</title>
    <g id="Layer_2" data-name="Layer 2">
        <g id="Layer_1-2" data-name="Layer 1">
            <rect class="cls-1" x="20.36" y="19.99" width="90.83" height="90.83"
                  transform="translate(158.54 65.13) rotate(135)"/>
            <rect class="cls-1" x="0.52" y="0.52" width="130" height="130"
                  transform="translate(131.08 0.02) rotate(90.02)"/>
            <rect class="cls-1" x="34.36" y="32.82" width="64" height="64"
                  transform="translate(132.73 129.64) rotate(180)"/>
            <rect class="cls-1" x="33.63" y="33.35" width="63.56" height="63.56"
                  transform="translate(157.73 64.94) rotate(135)"/>
            <path d="M70.49,48.9l.4-.1a22,22,0,0,1-2.15,8.33,21.07,21.07,0,0,1-4.42,6.06,20.53,20.53,0,0,1-5.24,3.67,14.5,14.5,0,0,1-4.76,1.42,5.86,5.86,0,0,1-4-.73,3.71,3.71,0,0,1-1.54-2.83A11.37,11.37,0,0,1,50.16,59,24.85,24.85,0,0,1,55,52.29a29.47,29.47,0,0,1,8.33-5.82,32.18,32.18,0,0,1,11.24-3,19.59,19.59,0,0,1,5.42.13,12,12,0,0,1,4.43,2,29.3,29.3,0,0,1,5.27-2.75l.13.32a35.45,35.45,0,0,0-5,2.73,10.29,10.29,0,0,1,3.22,6.44,9.8,9.8,0,0,1-.93,5.22,13.79,13.79,0,0,1-3.87,4.69,26.82,26.82,0,0,1-6.71,3.85,9.29,9.29,0,0,1-.37,4.1,19.16,19.16,0,0,1-2.78,4.42q-3.18,4.21-3,6.1.1,1,1.05.94,1.22-.11,4-2.89t7.13-7.66l.05.56a76.92,76.92,0,0,1-6.41,7.06Q72.88,82,71.51,82.13q-1.67.15-1.87-1.94a8.86,8.86,0,0,1,.72-4.69A19.24,19.24,0,0,1,73,71.45a23.88,23.88,0,0,0,2.21-3A6.28,6.28,0,0,0,76,66.33a12.9,12.9,0,0,1-2.36.41,2.65,2.65,0,0,1-1.7-.32,1.43,1.43,0,0,1-.71-1.11,1.66,1.66,0,0,1,.5-1.4,2.37,2.37,0,0,1,1.5-.65q2-.18,3.23,2.19a15.28,15.28,0,0,0,6-4.68,17.63,17.63,0,0,0,3.06-6A14.17,14.17,0,0,0,86.15,50a5.5,5.5,0,0,0-1.83-3.69,39,39,0,0,0-4.6,3.91A32.94,32.94,0,0,0,75.86,55Q74,57.77,71.3,62.5l-.57.92q-1.35,2.4-2.11,3.69c-.5.86-1,1.64-1.46,2.33s-1.08,1.48-1.82,2.37Q55.6,83.56,43.06,84.69a11.52,11.52,0,0,1-5.6-.57,3.4,3.4,0,0,1-2.18-2.92,2.89,2.89,0,0,1,.41-1.84,1.8,1.8,0,0,1,1.43-.9q1.4-.13,1.51,1a1,1,0,0,1-.3.8,1.21,1.21,0,0,1-.79.41q-1,.09-1.21-1.2c-.16,0-.3.22-.42.61a3,3,0,0,0-.13,1.18,2.94,2.94,0,0,0,2,2.48,10.9,10.9,0,0,0,5.08.5,22,22,0,0,0,7.66-2,24.58,24.58,0,0,0,6.07-4.13,41.82,41.82,0,0,0,4.84-5.31q2.14-2.8,5.43-7.59L67.76,64q3.93-5.68,7.32-9.89a46.46,46.46,0,0,1,8.76-8.14,9.35,9.35,0,0,0-3.76-1.82,18.3,18.3,0,0,0-5.49-.16,31.14,31.14,0,0,0-10.91,2.92,29,29,0,0,0-8.09,5.62A24.63,24.63,0,0,0,50.83,59a10.87,10.87,0,0,0-1.37,5.45A3.46,3.46,0,0,0,50.87,67,4.48,4.48,0,0,0,54,67.8a13.65,13.65,0,0,0,5.15-1.64,20.46,20.46,0,0,0,5.11-3.94,23.18,23.18,0,0,0,4.12-6A21.46,21.46,0,0,0,70.49,48.9ZM75.89,65.7a2.48,2.48,0,0,0-2.66-1.94,1.89,1.89,0,0,0-1.17.47,1.21,1.21,0,0,0-.37,1,.88.88,0,0,0,.68.86A4.91,4.91,0,0,0,74,66.2,6.46,6.46,0,0,0,75.89,65.7Z"/>
        </g>
    </g>
</svg>